Coordinates
version=1
nRows=16
nColumns=36
inDegrees=yes

Units are S.I. units (second, meters, Newtons, ...)
If the header above contains a line with 'inDegrees', this indicates whether rotational values are in degrees (yes) or radians (no).

endheader
time	pelvis_tilt	pelvis_list	pelvis_rotation	pelvis_tx	pelvis_ty	pelvis_tz	hip_flexion_r	hip_adduction_r	hip_rotation_r	knee_angle_r	knee_angle_r_beta	ankle_angle_r	subtalar_angle_r	mtp_angle_r	hip_flexion_l	hip_adduction_l	hip_rotation_l	knee_angle_l	knee_angle_l_beta	ankle_angle_l	subtalar_angle_l	mtp_angle_l	lumbar_extension	lumbar_bending	lumbar_rotation	arm_flex_r	arm_add_r	arm_rot_r	elbow_flex_r	pro_sup_r	arm_flex_l	arm_add_l	arm_rot_l	elbow_flex_l	pro_sup_l
      2.51666670	      3.78489181	     -6.72241982	     -7.73969564	      0.72578792	      1.01638354	      0.30482880	     31.28665104	     -4.36758730	     -5.40933544	     20.58143970	      0.35921389	      0.84299951	      2.10400003	     -7.49999944	      6.04170120	      0.00825375	      8.42685763	     16.43851887	      0.28690628	      9.11480876	    -11.74449698	     -7.49999944	    -34.04618277	      1.97437706	     -1.03694068	     39.78382667	      0.85073848	     60.32632567	    109.35781809	     89.17152342	     49.84907984	    -12.57401708	     61.35330332	    114.18214501	     87.90009846
      2.53333330	      4.05069926	     -7.38336504	     -7.79221116	      0.73062248	      1.01648444	      0.30132598	     30.64999534	     -3.63449141	     -5.00746260	     21.26131784	      0.37108000	      1.39624415	      0.94682338	     -7.49999945	      4.83574428	     -0.57166079	      8.68361004	     15.53397527	      0.27111901	      9.34306974	    -11.59333004	     -7.49999945	    -33.56318995	      2.75891200	     -0.89710307	     38.90657792	      0.51985499	     60.39387243	    109.35388349	     89.18775851	     48.32753926	    -12.51714195	     61.53713195	    114.13911026	     87.98970504
      2.55000000	      4.58990688	     -7.93162633	     -7.82916959	      0.72990740	      1.01907541	      0.29595653	     29.64329917	     -3.04818521	     -4.40048232	     21.50514626	      0.37533561	      1.11939642	     -0.60044302	     -7.49999946	      3.54231204	     -0.94801710	      8.87716140	     14.86927885	      0.25951787	      9.53032215	    -11.40450473	     -7.49999946	    -33.63214758	      3.53398661	     -0.75126809	     38.86467163	      0.13390779	     60.18288914	    109.03137937	     89.22280016	     47.37874124	    -12.02770211	     60.58582523	    113.71028906	     88.11717144
      2.56666670	      4.76194952	     -8.24286085	     -7.66029023	      0.73121232	      1.01822640	      0.30080393	     28.99968121	     -2.70610981	     -4.22905166	     21.60863909	      0.37714190	      1.49752062	     -1.30112754	     -7.49999946	      2.76941830	     -1.15889098	      9.21826314	     14.29270408	      0.24945475	      9.76793231	    -11.29405498	     -7.49999946	    -33.14630394	      4.00120323	     -0.70839645	     38.51212518	     -0.16169958	     60.09671165	    108.85466568	     89.20346519	     46.47262473	    -12.07749899	     60.88605795	    113.71750634	     88.17528368
      2.58333330	      5.48905438	     -8.88263840	     -7.48334754	      0.73637057	      1.01680649	      0.29749208	     27.36628526	     -2.00075294	     -3.64516499	     21.03784880	      0.36717973	      1.01717753	     -2.97561752	     -7.49999947	      1.29370166	     -1.65351687	      9.40603406	     13.71458260	      0.23936462	      9.96571467	    -11.11245379	     -7.49999947	    -33.24631181	      4.79413663	     -0.58204442	     38.14660127	     -0.42806675	     60.19562626	    109.01849799	     88.74673617	     45.29925782	    -11.75096288	     60.29443381	    113.73268972	     88.08215879
      2.60000000	      5.89456352	     -9.20356224	     -7.28381216	      0.73643517	      1.01697790	      0.29735181	     26.32733829	     -1.66032268	     -3.28100173	     20.75560482	      0.36225364	      1.08153551	     -3.72318255	     -7.49999947	      0.51761136	     -1.83137792	      9.61001724	     13.44857558	      0.23472192	     10.16038037	    -11.00800451	     -7.49999947	    -33.08628899	      5.25523737	     -0.56010004	     37.62981232	     -0.80299317	     60.11680849	    108.96135402	     88.64837456	     44.26342482	    -11.64903922	     59.70095693	    113.57418236	     88.19197763
      2.61666670	      6.36917153	     -9.54163844	     -7.01097109	      0.74221678	      1.01742018	      0.29905950	     25.06325057	     -1.24989885	     -2.78955783	     20.06376959	      0.35017884	      1.01335565	     -4.53330307	     -7.49999948	     -0.50351539	     -2.08907007	      9.67447154	     12.92035798	      0.22550279	     10.56085739	    -10.56295465	     -7.49999948	    -32.68024203	      5.74484475	     -0.41151404	     36.69706606	     -1.11402154	     59.71331187	    108.83093462	     88.57401053	     42.84645198	    -11.50250610	     58.75411578	    113.15390454	     88.34695471
      2.63333330	      6.93390324	     -9.87864904	     -6.68805710	      0.74246528	      1.01730171	      0.29868920	     23.69241167	     -0.83050877	     -2.28074413	     19.50690264	      0.34045968	      1.04873082	     -5.29979217	     -7.49999948	     -1.51035437	     -2.36139221	      9.86197253	     12.53476930	      0.21877300	     10.86259022	    -10.22526046	     -7.49999948	    -32.54008241	      6.17461832	     -0.58034680	     36.36343290	     -1.20510788	     59.77013758	    108.89884739	     88.64214652	     42.24409461	    -11.26390820	     58.46076817	    113.00020137	     88.66972160
      2.65000000	      7.02033560	     -9.98986727	     -6.39662502	      0.74310923	      1.01721149	      0.29853675	     22.94748046	     -0.57941092	     -1.81944886	     19.39844503	      0.33856674	      1.14896283	     -5.97309516	     -7.49999956	     -1.73177243	     -2.44129614	      9.98874759	     12.53903005	      0.21884736	     11.33254830	     -9.79533144	     -7.49999956	    -32.16905351	      6.48156127	     -0.49188233	     36.18544218	     -1.41993354	     59.98611127	    109.07050401	     88.22942751	     41.28972704	    -11.25640912	     58.38911178	    113.04742841	     89.46902067
      2.66666670	      6.94188205	     -9.98891218	     -6.20634257	      0.74367191	      1.01650311	      0.29822008	     22.70151893	     -0.43097986	     -1.30686125	     19.64375514	      0.34284820	      1.16687842	     -6.65779810	     -7.49999960	     -1.68499356	     -2.36226888	     10.28320156	     12.60222852	      0.21995038	     11.67556667	     -9.79277751	     -7.49999960	    -31.45938702	      6.67212387	     -0.20832950	     35.60513814	     -1.98213399	     59.90178149	    109.55580995	     86.63276472	     40.12243405	    -10.90370800	     58.14070623	    113.43415682	     87.99001688
      2.68333330	      7.12118487	    -10.15638500	     -6.07421594	      0.74859517	      1.01482874	      0.29527755	     21.95723550	     -0.13731490	     -0.79846129	     19.37481559	      0.33815432	      1.07021094	     -7.35210531	     -7.49999960	     -2.12894356	     -2.42822605	     10.32486423	     12.45608430	      0.21739968	     12.07319043	     -9.46663519	     -7.49999960	    -30.81704019	      7.11237301	     -0.22617233	     35.16548668	     -2.33827679	     59.83550964	    109.76605968	     86.82689935	     39.52445552	    -10.26703959	     57.97239699	    113.88681261	     88.28100849
      2.70000000	      7.59203918	    -10.19208339	     -5.84084987	      0.74836343	      1.01748052	      0.29528205	     21.07599145	     -0.02755881	     -0.27921701	     19.16478283	      0.33448856	      1.15289064	     -7.74439946	     -7.49999963	     -2.74293715	     -2.34126331	     10.36473668	     12.34586701	      0.21547603	     12.40708447	     -9.13254777	     -7.49999963	    -30.72236324	      7.26758838	     -0.22521384	     35.13743755	     -2.43266485	     59.82327568	    109.79892735	     86.43012430	     39.41220755	     -9.81092331	     58.32590673	    114.12150529	     88.18774670
      2.71666670	      7.89053902	    -10.36743415	     -5.70042805	      0.75364958	      1.01840786	      0.29765360	     20.29241026	      0.30786248	      0.25268022	     19.01204370	      0.33182276	      1.33502533	     -8.38044214	     -7.49999963	     -3.29876886	     -2.46787669	     10.32782871	     12.18833406	      0.21272656	     12.71562122	     -8.85081650	     -7.49999963	    -30.33781700	      7.48341351	     -0.24419516	     34.60306586	     -2.37814971	     59.46495293	    109.74161413	     86.68751658	     38.74478696	     -9.52220217	     58.04676974	    113.86467533	     88.59740276
      2.73333330	      8.02519122	    -10.48468777	     -5.59463136	      0.75368711	      1.01599249	      0.29767324	     19.77426971	      0.59506949	      0.74951477	     18.79376166	      0.32801302	      1.49375091	     -8.84210454	     -7.49999964	     -3.60428931	     -2.55535355	     10.35275524	     12.15823345	      0.21220120	     12.96819436	     -8.71269821	     -7.49999964	    -29.95883271	      7.67692749	     -0.13303899	     34.38332372	     -2.39413119	     59.12935511	    109.85090478	     86.48279042	     38.32423110	     -9.21304509	     58.15092116	    114.23592047	     88.46580264
      2.75000000	      8.33267694	    -10.52464547	     -5.35411093	      0.75395932	      1.01836249	      0.29756948	     18.92397484	      0.77344679	      1.15413177	     18.37568277	      0.32071617	      1.44553730	     -9.00989719	     -7.49999964	     -3.97053173	     -2.56416518	     10.41546524	     12.26379567	      0.21404361	     13.19558635	     -8.48017631	     -7.49999964	    -29.85350700	      7.75435669	     -0.26901422	     34.03740526	     -2.58092284	     58.88585171	    109.69072497	     86.40024869	     38.11626582	     -8.98506178	     58.19131067	    113.72967911	     88.52050837
      2.76666670	      8.39062050	    -10.45196908	     -5.26331804	      0.75437542	      1.01541870	      0.29749941	     18.54438598	      0.86032686	      1.59161705	     18.06160535	      0.31523448	      1.41162498	     -9.07783764	     -7.49999972	     -3.99693290	     -2.46744151	     10.23808652	     12.38462854	      0.21615254	     13.64135503	     -7.97487774	     -7.49999972	    -29.50708113	      7.60988037	     -0.07498951	     33.48149477	     -2.85828977	     58.44465995	    110.01252492	     89.06514855	     38.27951015	     -8.58747825	     58.47780267	    113.35017748	     91.66909389
